<?xml version="1.0" encoding="UTF-8"?>
<svg width="214px" height="69px" viewBox="0 0 214 69" version="1.1" xmlns="http://www.w3.org/2000/svg" xmlns:xlink="http://www.w3.org/1999/xlink">
    <!-- Generator: Sketch 41.1 (35376) - http://www.bohemiancoding.com/sketch -->
    <title>Logo</title>
    <desc>Created with Sketch.</desc>
    <defs></defs>
    <g id="Symbols" stroke="none" stroke-width="1" fill="none" fill-rule="evenodd">
        <g id="Header" transform="translate(-378.000000, -42.000000)" fill="#FFFFFF">
            <g id="Logo">
                <g transform="translate(378.000000, 42.000000)">
                    <path d="M199.840941,34.6185346 L200.56956,34.614941 C201.035538,34.6113474 201.33691,34.516716 201.33691,34.0351741 C201.33691,33.6123275 200.949604,33.4877495 200.562298,33.4913431 L199.833679,33.4913431 L199.840941,34.6185346 L199.840941,34.6185346 Z M199.21883,33.0241755 L200.654283,33.0169883 C201.514829,33.0133947 201.942076,33.3535885 201.949338,34.0555378 C201.949338,34.6532727 201.570504,35.0869001 200.985914,35.0869001 L202.055847,36.7243824 L201.407109,36.727976 L200.35049,35.0892958 L199.840941,35.0928894 L199.844572,36.7387568 L199.235775,36.7387568 L199.21883,33.0241755 L199.21883,33.0241755 Z M200.476365,37.5772627 C201.945707,37.5664819 203.048319,36.3877822 203.044688,34.8664928 C203.031374,33.3475992 201.92029,32.1784823 200.446106,32.1856695 C198.958609,32.1916588 197.851156,33.3703586 197.862049,34.8904501 C197.868101,36.4093437 198.980395,37.5796585 200.476365,37.5772627 L200.476365,37.5772627 Z M200.434003,31.7101169 C202.204718,31.7005339 203.649853,33.117609 203.653484,34.8664928 C203.660746,36.6129809 202.237397,38.0408367 200.463051,38.0516175 C198.702019,38.0576069 197.253252,36.6357403 197.249621,34.8940437 C197.239939,33.143962 198.672971,31.7173041 200.434003,31.7101169 L200.434003,31.7101169 Z" id="Fill-1"></path>
                    <polygon id="Fill-6" points="44.323541 63.8295662 46.0252667 63.8295662 46.0252667 53.4620391 44.323541 53.4620391"></polygon>
                    <polygon id="Fill-8" points="60.4273614 63.747752 59.5498713 64.0088867 52.2007399 55.768769 52.3992342 63.8304047 51.0412425 63.8304047 51.0739215 53.4628776 52.3157213 53.4628776 59.304174 61.3148869 59.0887351 53.4628776 60.4443061 53.4628776"></polygon>
                    <polygon id="Fill-9" points="66.3215536 53.4628776 69.4744665 61.8347605 73.0279991 53.4628776 74.6159537 53.4628776 69.7237948 63.8304047 68.6006074 63.8304047 64.4528022 53.4628776"></polygon>
                    <polygon id="Fill-10" points="85.4853336 53.4628776 85.4853336 54.5110101 80.0812045 54.5110101 80.0812045 57.8135256 84.8886403 57.8135256 84.8886403 58.8784282 80.0812045 58.8784282 80.0812045 62.7199832 85.5857911 62.7199832 85.5857911 63.8304047 78.3806891 63.8304047 78.3806891 53.4628776"></polygon>
                    <path d="M96.8021729,54.7241104 C96.8191175,54.8067631 96.8191175,54.8546777 96.7525493,54.9037902 L96.4729628,55.0187853 C96.4221289,55.0511277 96.4076049,55.0511277 96.3906603,55.0511277 C96.3240921,55.0511277 96.0445055,54.8546777 95.9791476,54.8235332 C95.5313251,54.5767729 94.7700267,54.2976702 93.9796804,54.2976702 C92.9690538,54.2976702 91.9463239,54.7408805 91.9463239,55.868072 C91.9463239,56.8335517 92.5732755,57.1126544 94.2931562,57.8445503 C95.7637087,58.4842106 97.2645194,59.1562132 97.2645194,60.905097 C97.2645194,62.5222156 95.8617455,64.0267349 93.1844928,64.0267349 C92.1436079,64.0267349 90.7565683,63.7476322 90.4406718,63.6494072 C90.2276535,63.5667545 90.1610853,63.5380057 90.1441407,63.3906682 L89.9952699,62.3916483 C89.9952699,62.277851 89.9807459,62.2287385 90.0618381,62.1784282 L90.3111664,62.0478608 C90.3256903,62.0478608 90.3753139,62.0155185 90.4092032,62.0155185 C90.4576164,62.0155185 90.69,62.1784282 90.7396236,62.2119684 C91.5336009,62.6384086 92.5067073,62.9330835 93.448345,62.9330835 C94.5231191,62.9330835 95.6463065,62.4084184 95.6463065,61.2644567 C95.6463065,60.200752 94.7700267,59.8234244 93.4822343,59.2867806 C91.7986635,58.5824356 90.3583693,57.9763155 90.3583693,56.2118595 C90.3583693,54.4294354 91.913645,53.2663079 94.3076802,53.2663079 C95.3824543,53.2663079 96.3410367,53.5118703 96.4886971,53.5765551 C96.5552653,53.5933252 96.6545125,53.6424377 96.6702468,53.8065453 L96.8021729,54.7241104 Z" id="Fill-11"></path>
                    <polygon id="Fill-12" points="110.977452 53.4628776 110.977452 54.5601225 106.665041 54.5601225 106.665041 63.8304047 104.963316 63.8304047 104.963316 54.5601225 100.683584 54.5601225 100.683584 53.4628776"></polygon>
                    <polygon id="Fill-13" points="126.945957 63.8294464 125.278121 63.8294464 125.09536 55.6540134 120.946345 63.6653388 120.27098 63.7635638 116.303514 55.5881308 116.170378 63.8294464 114.783338 63.8294464 115.407869 53.4619193 117.011558 53.4619193 120.912456 61.4744426 125.046947 53.4619193 126.631271 53.4619193"></polygon>
                    <polygon id="Fill-14" points="138.932957 53.4628776 138.932957 54.5110101 133.528828 54.5110101 133.528828 57.8135256 138.336263 57.8135256 138.336263 58.8784282 133.528828 58.8784282 133.528828 62.7199832 139.033414 62.7199832 139.033414 63.8304047 131.828312 63.8304047 131.828312 53.4628776"></polygon>
                    <polygon id="Fill-15" points="153.474845 63.747752 152.597355 64.0088867 145.244592 55.768769 145.443086 63.8304047 144.088726 63.8304047 144.121405 53.4628776 145.359574 53.4628776 152.349237 61.3148869 152.135008 53.4628776 153.491789 53.4628776"></polygon>
                    <polygon id="Fill-16" points="168.274896 53.4628776 168.274896 54.5601225 163.962486 54.5601225 163.962486 63.8304047 162.26076 63.8304047 162.26076 54.5601225 157.982239 54.5601225 157.982239 53.4628776"></polygon>
                    <path d="M178.28954,54.7241104 C178.306485,54.8067631 178.306485,54.8546777 178.239917,54.9037902 L177.95912,55.0187853 C177.908286,55.0511277 177.892552,55.0511277 177.875607,55.0511277 C177.810249,55.0511277 177.528242,54.8546777 177.462884,54.8235332 C177.015061,54.5767729 176.257394,54.2976702 175.463417,54.2976702 C174.45279,54.2976702 173.431271,54.7408805 173.431271,55.868072 C173.431271,56.8335517 174.060643,57.1126544 175.778103,57.8445503 C177.247445,58.4842106 178.748256,59.1562132 178.748256,60.905097 C178.748256,62.5222156 177.345482,64.0267349 174.668229,64.0267349 C173.629765,64.0267349 172.243936,63.7476322 171.928039,63.6494072 C171.713811,63.5667545 171.647242,63.5380057 171.630298,63.3906682 L171.481427,62.3916483 C171.481427,62.277851 171.465693,62.2287385 171.546785,62.1784282 L171.796113,62.0478608 C171.813058,62.0478608 171.862681,62.0155185 171.896571,62.0155185 C171.944984,62.0155185 172.177367,62.1784282 172.226991,62.2119684 C173.018548,62.6384086 173.994075,62.9330835 174.934502,62.9330835 C176.009276,62.9330835 177.130043,62.4084184 177.130043,61.2644567 C177.130043,60.200752 176.257394,59.8234244 174.967181,59.2867806 C173.2824,58.5824356 171.845737,57.9763155 171.845737,56.2118595 C171.845737,54.4294354 173.397381,53.2663079 175.793837,53.2663079 C176.866191,53.2663079 177.827194,53.5118703 177.974854,53.5765551 C178.042633,53.5933252 178.14067,53.6424377 178.157614,53.8065453 L178.28954,54.7241104 Z" id="Fill-17"></path>
                    <path d="M56.6481021,3.87890284 C56.8465964,3.68245308 57.1612825,3.96155548 56.9059026,4.18795184 C56.7630836,4.13404795 56.5851649,3.94119178 56.6481021,3.87890284 L56.6481021,3.87890284 Z M50.4294201,29.030461 C50.7077963,27.0060702 48.5824546,26.84915 45.6800802,31.3567136 C42.7777059,35.4641905 44.2700443,39.1919444 48.5606686,34.5693858 C49.2420851,33.6721854 49.522882,33.3260026 50.644859,31.3052054 C51.5913381,29.1334773 50.4366821,29.8462066 50.4633094,29.3119591 L50.4294201,29.030461 Z M105.080718,5.60502539 C104.975419,7.12271954 104.187493,9.93171149 103.571435,11.7344974 C104.766032,11.6698127 106.983358,12.673623 108.118649,13.6235295 C110.374707,10.4983013 112.524255,8.04507511 114.18725,6.35249276 C112.912771,7.48088099 107.305307,8.79613607 105.080718,5.60502539 L105.080718,5.60502539 Z M198.950379,46.6079227 C200.863913,49.2156734 201.204016,49.3809787 202.514805,50.6926402 C203.426184,51.4460969 205.079496,53.0991497 206.18816,53.8490128 C212.788096,58.3134533 215.398781,52.8547854 208.951346,49.5115459 C206.615407,48.2609755 204.113652,47.3182563 198.950379,46.6079227 L198.950379,46.6079227 Z M34.9541246,30.8356426 C21.5339717,36.5674236 13.171793,44.2948466 5.50192383,54.6587691 C2.51845728,59.3364295 -0.463798938,64.851397 2.49425065,67.1369222 C6.8175539,69.5350467 14.8589948,66.3846634 24.7679768,48.9617262 C28.5405793,42.2668622 32.4257426,35.7876139 34.9541246,30.8356426 L34.9541246,30.8356426 Z M191.805794,28.1955495 C190.163374,29.0436375 189.114017,29.6389761 187.148439,33.0433066 C189.816009,32.6180647 192.107166,32.0107475 193.523254,30.2654591 C195.267341,27.9008749 193.335652,27.4025633 191.805794,28.1955495 L191.805794,28.1955495 Z M167.814607,29.3095634 C168.284216,26.6694703 165.822402,27.2432473 162.742109,31.6633668 C160.574406,34.7322954 161.387748,39.7824915 166.534077,33.9764429 C167.123508,33.0720553 167.461191,32.6803537 167.940482,31.7244579 C169.118134,29.4736708 167.818238,30.1241111 167.846076,29.5910615 L167.814607,29.3095634 Z M122.881059,28.5489195 C120.846493,30.9698034 120.966315,31.0847984 119.719674,33.2229863 C118.763513,34.9107771 118.986213,36.0104166 119.680944,36.3673802 C120.321209,36.5877873 121.041356,36.3613909 122.398137,35.0641038 C124.029664,32.924718 124.143435,32.6995195 125.773751,29.9971375 C127.571093,26.5640582 124.34556,26.6323365 122.881059,28.5489195 L122.881059,28.5489195 Z M96.6640741,27.370221 L95.4101709,25.7483126 C92.9810361,28.4542882 90.3267796,31.6669604 85.4660893,35.168318 C87.1992837,36.1373903 89.4565515,36.5422684 91.5419522,36.2032728 C94.9441934,35.5192922 97.2510848,32.1401169 98.8862423,29.436537 L96.6640741,27.370221 Z M110.006766,17.5429417 L103.767508,29.9240678 L103.428615,30.5397701 C105.021411,31.2093763 107.46386,31.7627896 108.652405,31.7556024 C111.865835,26.9713321 112.134528,21.7067182 110.006766,17.5429417 L110.006766,17.5429417 Z M103.126033,12.8005966 C101.594964,16.9715604 98.8826113,21.549798 96.535779,24.3396241 L96.2549821,24.7900211 C96.9981255,26.1340249 98.1975638,27.590628 99.5083526,28.3704377 C102.098461,24.2617629 104.28674,19.5876962 107.557055,14.6908266 C106.758237,13.5708234 104.045884,12.8209603 103.126033,12.8005966 L103.126033,12.8005966 Z M96.8371515,15.0190415 C95.0906435,17.4387275 94.4770055,20.5316133 95.6812851,23.6137183 C98.1079993,20.7412395 100.868765,16.1510233 101.987111,12.6963824 C100.08447,12.7131525 98.0486931,13.4366626 96.8371515,15.0190415 L96.8371515,15.0190415 Z M202.568059,9.06445768 C200.161921,11.1571267 199.007265,13.0952713 197.425362,15.5724548 L199.864179,13.9062255 C201.436399,12.7383077 202.24369,12.0088083 203.283365,10.9726556 C206.645665,7.47608953 203.978095,7.5443678 202.568059,9.06445768 L202.568059,9.06445768 Z M72.245641,9.68015997 C69.5950155,12.7215376 68.8070899,13.9062255 67.6270169,16.0444134 C69.6034879,15.0813304 73.5298025,11.3008705 74.6868791,9.78197844 C76.0993357,8.2570971 74.8430119,6.71784139 72.245641,9.68015997 L72.245641,9.68015997 Z M122.643835,0.47936376 C117.046052,5.21931306 114.593921,9.2992391 110.541732,16.3354944 C111.787163,18.573105 112.888565,21.1233583 112.924875,23.9898477 L115.128888,20.6106723 C119.187128,14.4740132 125.069338,6.74179868 133.25965,3.07393798 C133.25965,3.07393798 133.423045,3.19492228 133.432727,3.18174577 L133.377052,3.4632439 C125.419124,8.94347338 115.656592,27.9955062 113.752741,31.0620389 C119.647054,28.844792 124.560999,23.9371417 127.471846,27.6325532 L128.14479,26.5604646 C128.540568,26.5604646 130.582397,26.5520796 131.033851,26.5520796 L126.418858,34.6604235 C126.086017,35.6666296 126.489057,37.2358319 128.58172,34.8113544 L129.706117,33.4625591 C132.499562,29.8557895 133.343163,28.3919993 134.842763,27.3774081 C135.689995,26.5281223 138.638362,25.7878421 139.210849,27.467248 L139.554583,28.3368975 C141.477799,27.4289163 143.315082,25.6536813 145.394431,26.9928937 C146.034696,27.6624999 146.929131,28.2219025 145.747848,30.6391928 C144.51331,32.5557758 144.734801,32.2742777 143.493001,34.2711176 C142.484795,35.8211541 142.861208,38.5175468 147.235345,33.7212978 C149.961011,30.1612449 152.530544,24.9960538 158.240887,26.601192 C159.117167,27.1570011 159.464532,27.5499006 159.23941,28.3919993 C159.022761,28.8998938 158.151323,29.1849855 157.599412,28.923851 C156.798172,28.5728768 157.147958,26.8335777 155.100078,28.1332606 C153.435872,29.8486023 151.826131,32.5258292 151.211283,34.0411276 C150.763461,35.168318 150.936538,36.1230159 152.131135,36.5087282 C153.637997,36.6141403 154.795074,35.7085548 155.860166,34.5861559 C159.596458,31.6489925 162.460102,25.3458302 168.22491,26.5844219 C171.095815,27.5007882 169.297263,30.8787657 172.745497,28.8663535 C175.744698,27.2228836 176.873937,25.8441417 180.679218,26.6694703 C181.406627,27.0647655 182.045682,27.6744785 181.988797,28.5728768 C181.850819,29.1334773 181.652325,29.277221 181.135513,29.4796601 C179.461625,29.9863567 180.596916,27.0923164 178.267028,28.2027367 C176.84973,29.1131136 175.880255,30.8787657 174.807901,32.8169102 C173.1207,35.4078909 173.897732,38.2671931 178.141154,35.2737301 C180.398421,33.6626025 181.158509,32.7055088 182.092885,31.7208643 C190.312245,23.0135882 190.798798,17.5968456 199.672947,9.69693007 C203.034037,6.11651348 208.19731,5.81465165 205.179954,10.2635199 C204.759969,10.7702165 204.672825,10.9067731 203.489121,12.1501563 C200.96195,14.6417142 199.364312,15.535321 196.190824,17.4590912 C193.933556,20.6418168 192.557409,23.4496109 190.384865,26.9413855 L189.71071,28.3165338 C191.540731,27.1857498 193.32839,26.3640149 194.013438,26.1651694 C198.51708,25.0775086 198.276224,28.7285991 197.60086,29.7970942 C195.462204,32.8959693 191.655712,33.1642909 188.426549,33.7967633 C192.298398,36.3050913 194.155047,39.2733992 197.378159,44.2289641 C201.807971,44.9440891 204.87495,46.0509158 206.527053,46.8307255 C208.628188,47.8884397 209.882091,48.6119498 211.246134,49.7283594 C217.284477,55.7691894 210.127788,59.4873604 202.531749,54.4251856 C199.117405,51.8581622 198.083782,50.2362539 194.953865,45.7550433 C181.860502,44.0432951 166.064468,44.3942693 155.179959,45.7334817 L154.947576,45.5106789 C163.2214,43.2874427 180.887395,42.057236 193.350176,43.5737323 C191.8651,41.112121 188.603257,34.7203167 186.672779,34.170497 C185.752927,35.4977307 185.146551,36.7015844 184.474817,37.8287747 C184.48571,37.8048175 180.50372,37.8455448 180.50372,37.8455448 C181.682583,35.5947577 183.519866,32.6396263 184.471186,30.5565402 C182.270804,32.9822155 180.492827,34.8688519 178.315441,36.422482 C174.609407,38.7690983 172.845954,37.9928822 171.590841,36.7638733 C170.449499,34.9131729 171.512169,32.43 172.130649,30.3576947 C170.952996,30.5637274 171.14786,31.2513015 169.748717,30.9278781 C168.568644,33.4062595 168.009471,34.841301 166.086254,36.3913375 C162.860722,38.8206064 160.248827,38.1018878 159.16316,36.4787816 C158.734702,35.3300297 158.613669,34.8520818 159.113536,32.6312413 C156.550054,35.0832696 153.444344,39.1979337 149.30138,37.4778005 C148.162459,36.9172 147.902238,35.909796 147.80178,34.9694725 C147.805411,34.929943 147.891345,34.5047011 148.030533,34.1141973 C144.956291,37.6874268 141.702921,38.9367993 139.849904,37.0381843 C138.540325,35.4989286 141.359187,31.7831533 142.005504,30.5433637 L142.311717,30.010314 C143.523259,28.208726 141.11349,28.7226098 140.723763,29.0077015 C139.248369,29.515596 137.981152,31.6010779 136.854334,33.6554153 L134.547442,37.9341868 L130.77605,37.9485612 C132.380949,35.0209807 134.016107,32.4503637 135.537493,29.5611149 C135.623427,29.2017556 135.673051,28.0194634 134.312638,28.9789528 C133.746203,29.7383988 132.982484,30.6942946 131.576079,32.5557758 C130.487991,33.993213 127.463374,38.6936328 124.567051,38.0312138 C123.258683,37.5868061 123.155805,37.2585913 122.974255,36.5254983 C122.901635,36.3050913 123.071081,35.8594857 122.911318,36.0176038 C121.564219,37.1543771 120.03315,38.0515775 118.09783,37.8311705 C117.052104,37.7964324 116.08626,36.8620982 115.893817,35.9181811 C115.569448,34.0782614 116.486879,32.1269404 117.611277,30.593674 L117.215499,30.7038775 C116.08626,31.3016118 114.382113,31.7292494 113.136683,32.1269404 C111.955399,33.9309241 110.979872,35.9756786 109.813113,37.8718979 C109.813113,37.8718979 105.574533,37.8718979 105.560009,37.8874701 L108.317143,32.5977011 C106.559742,32.607284 104.057988,31.9987689 102.927538,31.3890559 C100.781621,35.2150347 97.6747007,37.6970097 93.6503493,38.4456749 C90.1912225,39.0913238 86.7853504,37.3640034 84.277544,35.9026088 C80.3197608,39.0086712 72.7188805,39.2674099 77.2322058,33.2397564 C78.0201314,31.9987689 77.0881764,33.4362061 78.1593195,31.7424259 C78.7620645,30.7937173 78.5538875,31.238125 79.0029204,30.3972242 C80.5279378,28.3668441 77.6558217,26.8335777 74.4992778,32.0143411 C73.0928729,34.2124222 72.5579065,34.8868199 70.7835608,37.8718979 L67.4466776,37.862315 C69.1241967,34.9586917 70.8150294,32.395262 72.450187,29.4988259 C73.012991,28.5944383 72.5542755,27.1677819 70.7169926,29.1682154 L70.4059375,29.5611149 C69.3323737,30.911108 66.9928033,34.0686785 65.467786,36.0140102 C62.4782677,39.5105763 58.3074662,37.9269996 60.3843947,34.2088286 C61.2873018,32.5222356 61.3417667,32.5737438 61.6794491,31.9029397 C62.1345337,31.0847984 62.3281867,30.7182519 62.4673748,30.4092029 C64.5237276,27.2300708 60.2415756,27.7523397 56.9785225,33.9992024 L54.7285167,37.8287747 C54.7285167,37.8287747 51.2100837,37.8455448 51.1967701,37.8718979 C53.9708493,32.7773807 55.5467006,30.5804975 57.5195406,26.9797172 L56.7763972,27.4912053 C55.5200734,28.6243849 54.1233511,29.5215854 52.43857,29.4604943 C51.6966369,32.8995629 49.9501289,34.8700498 48.708329,35.9445341 C45.598988,38.6001994 43.2146355,37.7964324 42.3008354,37.260987 C41.4330279,36.5087282 41.1001868,35.574394 41.0469322,34.5011075 C41.159493,31.9388757 42.6348868,30.3049887 44.1586938,28.271015 C43.0258238,28.6112084 41.554061,28.6219892 40.1936486,29.1298837 C38.5379155,32.1712613 31.5688281,47.9794774 26.6101009,55.1295298 C16.6297094,68.9888205 4.72489116,71.0060241 0.994650227,67.3669122 C-1.71407113,64.012892 1.31659834,56.8137271 7.57764193,48.7520999 C13.7830103,41.2630519 23.9631065,33.9764429 35.7142127,29.515596 C40.4441872,21.2982465 46.1133788,13.7217543 53.2289163,6.95501853 C49.6088155,8.76618946 42.8563774,8.5697397 40.0641432,6.1392729 C40.9392127,11.4422185 36.5396586,17.0781703 31.6717063,18.7827313 C36.1922935,15.446679 40.1440251,10.8852115 38.9845277,5.52596634 C38.2970596,4.63235952 37.8468163,4.7473545 37.4461967,3.5674581 C37.2670677,2.0545554 38.6867862,2.27017099 39.3185791,4.06457181 C40.6898845,6.02667365 43.6164654,7.14068751 47.0162859,7.28802483 C51.3286962,7.18740422 53.8219786,5.97157189 56.7340356,3.79385447 L56.9059026,4.18795184 C49.6753837,10.898388 42.4702817,24.2953031 40.8423862,28.0026933 C45.9463531,26.4670312 50.0227488,25.5494671 51.2173457,27.1174716 C51.9495961,27.6493234 51.8152494,28.0781588 52.588651,28.5153793 C54.2347016,29.0687926 57.7967064,25.6285262 59.994668,22.7548495 C63.9463996,17.85798 65.7316382,11.6147109 73.8541712,7.08917934 C75.2666278,6.43634326 77.2564124,7.18740422 75.7628636,9.66338987 C74.3564587,11.9165727 69.72089,15.755728 67.1755634,17.4495083 C65.1034762,18.8282501 63.0580164,23.7586599 60.414653,27.6385426 C62.5617806,26.7018126 68.2007139,24.658256 66.209719,29.69288 C65.8744573,30.4810747 64.7464285,32.5641609 63.7345916,34.1369568 C62.7179133,35.3228425 63.294031,37.0621416 65.2934983,34.4975139 C65.7727894,33.9381113 67.4539395,31.6046715 68.171666,30.7242412 C70.3986755,27.9895168 71.8087114,25.7387297 74.7607093,26.7353528 C75.5292697,27.1546054 75.6345685,28.2542449 75.5922069,29.0640012 C76.6100955,28.2446619 77.6594527,27.5115689 79.019865,26.9413855 C80.1043218,26.5736411 81.0568525,26.2298541 82.1957743,26.7581123 C83.7304743,27.8182222 82.4632575,29.9863567 82.1570437,30.4667003 L79.3406028,34.9131729 C78.7765885,36.1517646 79.1772081,37.1603664 80.9346091,36.6464826 C82.2950214,36.1373903 82.7440543,35.7971968 83.5658692,35.2605535 C82.8239362,34.4495994 82.1122614,33.7512444 82.7440543,33.5116716 C82.9413383,33.6003135 84.3307986,34.7203167 84.3307986,34.7203167 C87.3820437,32.4671338 91.1715909,29.135873 94.950245,24.6283094 C94.3753377,23.0567114 94.1502161,22.7213093 94.0909098,21.6588036 C93.448224,18.7384103 94.8933595,11.5464327 102.436144,11.5691921 C102.436144,11.5691921 103.581117,8.12293629 103.615007,7.91331003 C103.945427,6.34290984 104.339995,5.16061771 103.70215,2.76249325 C103.549649,2.0377853 103.508497,1.45921681 104.094298,1.22922685 C105.546695,1.35380475 105.021411,3.10867605 105.438976,4.00348073 C105.805706,4.9929167 106.109499,5.69366735 107.06324,6.04703734 C113.371487,8.65838166 118.843394,1.11183615 122.584528,0.197865634 L122.643835,0.47936376 Z" id="Fill-3"></path>
                </g>
            </g>
        </g>
    </g>
</svg>